<svg width="12" height="10" viewBox="0 0 12 10" fill="none" xmlns="http://www.w3.org/2000/svg">
<path d="M1.2 9.60003C0.870003 9.60003 0.587502 9.48253 0.352501 9.24753C0.1175 9.01253 0 8.73003 0 8.40003V1.2C0 0.870003 0.1175 0.587502 0.352501 0.352501C0.587502 0.1175 0.870003 0 1.2 0H10.8C11.13 0 11.4125 0.1175 11.6475 0.352501C11.8825 0.587502 12 0.870003 12 1.2V8.40003C12 8.73003 11.8825 9.01253 11.6475 9.24753C11.4125 9.48253 11.13 9.60003 10.8 9.60003H1.2ZM6.00002 5.40002L1.2 2.40001V8.40003H10.8V2.40001L6.00002 5.40002ZM6.00002 4.20001L10.8 1.2H1.2L6.00002 4.20001ZM1.2 2.40001V1.2V2.40001V8.40003V2.40001Z" fill="#3C4A43"/>
</svg>
